<svg id="Capa_1" data-name="Capa 1" xmlns="http://www.w3.org/2000/svg" viewBox="0 0 799 448"><defs><style>.cls-1{fill:none;}.cls-2,.cls-3{stroke:#000;stroke-miterlimit:10;}.cls-2{stroke-width:29px;}.cls-4{font-size:54.14px;}.cls-4,.cls-5{font-family:Arial-Black, Arial;font-weight:800;}.cls-5{font-size:62.08px;}</style></defs><polygon class="cls-1" points="322.59 203.41 322.5 203.5 322.5 203.32 322.59 203.41"/><polygon class="cls-1" points="419.87 225.13 382.5 262.5 382.5 262.44 419.87 225.13"/><path class="cls-1" d="M1198.63,812.27l-.48.59v-.12Z" transform="translate(-815.65 -669.24)"/><path d="M1403.61,827.93h0l-25.46,12.49-32,15.71a60,60,0,0,0-64-27V766.74h13.5a127.31,127.31,0,0,1,22.5,2,123.65,123.65,0,0,1,14.68,3.55,125.13,125.13,0,0,1,45.32,25.08,123.62,123.62,0,0,1,25,29.88c.1.17.2.33.29.5Z" transform="translate(-815.65 -669.24)"/><polygon class="cls-1" points="419.87 225.13 382.5 262.5 382.5 262.44 419.87 225.13"/><path d="M1403.74,949.31c-.08.14-.16.29-.25.43a123.23,123.23,0,0,1-25.34,30.38,125.24,125.24,0,0,1-60,28.63q-5.49,1-11.13,1.49t-11.37.5q-5.75,0-11.37-.5a125.35,125.35,0,0,1-86.13-45.62,121.51,121.51,0,0,1-10.34-14.88c-.1-.17-.2-.33-.29-.5-.86-1.45-1.67-2.92-2.46-4.41l13.09-13.09,37.37-37.37A60,60,0,0,0,1346,919.56l32.13,16.56,25.45,13.12Z" transform="translate(-815.65 -669.24)"/><line class="cls-1" x1="419.87" y1="225.13" x2="382.5" y2="262.44"/><path class="cls-1" d="M1346.16,919.24" transform="translate(-815.65 -669.24)"/><path class="cls-1" d="M1418.15,956.74" transform="translate(-815.65 -669.24)"/><path d="M1026.15,761.74" transform="translate(-815.65 -669.24)"/><path d="M973.15,814.74" transform="translate(-815.65 -669.24)"/><path d="M1258.15,766.74V847l-119.4,119.4-.6-.6-16-16-.5-.5-43.48-43.48v104.48h-60V888.74h43l-.5-.5h-42.48V766.74h14.18l105.82,105.82v.18l60-60v.12l.48-.59,0-.06,45.47-45.47Z" transform="translate(-815.65 -669.24)"/><polyline class="cls-1" points="334.09 214.91 322.59 203.41 322.5 203.32"/><line class="cls-1" x1="382.98" y1="143.03" x2="382.5" y2="143.5"/><line class="cls-1" x1="322.5" y1="203.5" x2="311.5" y2="214.5"/><path class="cls-1" d="M1211.24,918.61" transform="translate(-815.65 -669.24)"/><polygon points="279.09 204.5 363.91 204.5 321.5 274.04 279.09 204.5"/><path d="M1178.67,874.24l-20.72,34-20.8,34.1-20.79-34.1-20.73-34h83m1.78-1h-86.6l21.65,35.5,21.65,35.5,21.65-35.5,21.65-35.5Z" transform="translate(-815.65 -669.24)"/><rect x="203" y="214" width="52" height="10"/><polygon points="255 214 203 214 203 224 255 224 255 214 255 214"/><path class="cls-2" d="M1018.15,1009.74" transform="translate(-815.65 -669.24)"/><path class="cls-3" d="M1168.15,1107.74" transform="translate(-815.65 -669.24)"/><text class="cls-4" transform="translate(540.21 236.59)">10</text><text class="cls-5" transform="translate(238.6 427.99)">TRAINING</text><rect x="199" y="97.5" width="6.5" height="243.5"/><rect x="90" y="107" width="11" height="220"/><rect x="45" y="71" width="11" height="322"/><rect width="11" height="447"/><rect x="1513.65" y="780.24" width="11" height="216" transform="translate(2222.65 1107.24) rotate(180)"/><rect x="1558.65" y="737.24" width="11" height="322" transform="translate(2312.65 1127.24) rotate(180)"/><rect x="1603.65" y="670.24" width="11" height="447" transform="translate(2402.65 1118.24) rotate(180)"/><rect x="949.28" y="850.25" width="10.38" height="76.36" transform="translate(-749.61 1173.66) rotate(-90)"/><rect x="1470.1" y="849.94" width="10.38" height="76.36" transform="translate(-228.48 1694.17) rotate(-90)"/></svg>